<svg xmlns="http://www.w3.org/2000/svg" viewBox="0 0 960 600" role="img" aria-label="Build Your Own Agent Stack">
<defs><radialGradient id="g" cx="85%" cy="15%" r="80%"><stop offset="0" stop-color="#ffb020" stop-opacity=".55"/><stop offset="1" stop-color="#ffb020" stop-opacity="0"/></radialGradient>
<pattern id="p" width="40" height="40" patternUnits="userSpaceOnUse"><path d="M40 0H0V40" fill="none" stroke="#fff" stroke-opacity=".05"/></pattern></defs>
<rect width="960" height="600" fill="#101216"/><rect width="960" height="600" fill="url(#g)"/><rect width="960" height="600" fill="url(#p)"/>
<line x1="760" y1="230" x2="782" y2="264" stroke="#ffb020" stroke-opacity=".3"/><line x1="760" y1="230" x2="861" y2="177" stroke="#ffb020" stroke-opacity=".3"/><line x1="760" y1="230" x2="688" y2="57" stroke="#ffb020" stroke-opacity=".3"/><line x1="760" y1="230" x2="672" y2="258" stroke="#ffb020" stroke-opacity=".3"/><line x1="760" y1="230" x2="796" y2="392" stroke="#ffb020" stroke-opacity=".3"/><line x1="760" y1="230" x2="829" y2="221" stroke="#ffb020" stroke-opacity=".3"/><line x1="760" y1="230" x2="753" y2="86" stroke="#ffb020" stroke-opacity=".3"/><line x1="760" y1="230" x2="712" y2="228" stroke="#ffb020" stroke-opacity=".3"/><line x1="760" y1="230" x2="744" y2="351" stroke="#ffb020" stroke-opacity=".3"/><line x1="760" y1="230" x2="951" y2="272" stroke="#ffb020" stroke-opacity=".3"/><line x1="760" y1="230" x2="790" y2="135" stroke="#ffb020" stroke-opacity=".3"/><circle cx="782" cy="264" r="3" fill="#ff5b1f" opacity=".9"/><circle cx="686" cy="210" r="4" fill="#ffb020" opacity=".9"/><circle cx="861" cy="177" r="5" fill="#ffb020" opacity=".9"/><circle cx="709" cy="372" r="6" fill="#ff5b1f" opacity=".9"/><circle cx="688" cy="57" r="3" fill="#ffb020" opacity=".9"/><circle cx="810" cy="253" r="4" fill="#ffb020" opacity=".9"/><circle cx="672" cy="258" r="5" fill="#ff5b1f" opacity=".9"/><circle cx="824" cy="118" r="6" fill="#ffb020" opacity=".9"/><circle cx="796" cy="392" r="3" fill="#ffb020" opacity=".9"/><circle cx="593" cy="114" r="4" fill="#ff5b1f" opacity=".9"/><circle cx="829" cy="221" r="5" fill="#ffb020" opacity=".9"/><circle cx="691" cy="312" r="6" fill="#ffb020" opacity=".9"/><circle cx="753" cy="86" r="3" fill="#ff5b1f" opacity=".9"/><circle cx="888" cy="358" r="4" fill="#ffb020" opacity=".9"/><circle cx="712" cy="228" r="5" fill="#ffb020" opacity=".9"/><circle cx="825" cy="175" r="6" fill="#ff5b1f" opacity=".9"/><circle cx="744" cy="351" r="3" fill="#ffb020" opacity=".9"/><circle cx="669" cy="100" r="4" fill="#ffb020" opacity=".9"/><circle cx="951" cy="272" r="5" fill="#ff5b1f" opacity=".9"/><circle cx="705" cy="262" r="6" fill="#ffb020" opacity=".9"/><circle cx="790" cy="135" r="3" fill="#ffb020" opacity=".9"/><circle cx="818" cy="354" r="4" fill="#ff5b1f" opacity=".9"/><circle cx="760" cy="230" r="12" fill="#fff"/>
<text x="56" y="92" font-family="JetBrains Mono,monospace" font-size="24" font-weight="700" fill="#ff5b1f" letter-spacing="4">02 · BUILD GUIDE</text>
<text x="56" y="410" font-family="Space Grotesk,Inter,sans-serif" font-size="64" font-weight="700" fill="#fff" letter-spacing="-2"><tspan x="56" dy="0">Build Your Own Agent</tspan><tspan x="56" dy="70">Stack</tspan></text>
<text x="56" y="540" font-family="Inter,sans-serif" font-size="24" fill="#a3a9b3">Mac Steel · Steel Products</text></svg>