<svg xmlns="http://www.w3.org/2000/svg" viewBox="0 0 960 600" role="img" aria-label="AI Content Repurposing Prompt Pack">
<defs><radialGradient id="g" cx="85%" cy="15%" r="80%"><stop offset="0" stop-color="#ffb020" stop-opacity=".55"/><stop offset="1" stop-color="#ffb020" stop-opacity="0"/></radialGradient>
<pattern id="p" width="40" height="40" patternUnits="userSpaceOnUse"><path d="M40 0H0V40" fill="none" stroke="#fff" stroke-opacity=".05"/></pattern></defs>
<rect width="960" height="600" fill="#101216"/><rect width="960" height="600" fill="url(#g)"/><rect width="960" height="600" fill="url(#p)"/>
<line x1="760" y1="230" x2="771" y2="192" stroke="#ffb020" stroke-opacity=".3"/><line x1="760" y1="230" x2="654" y2="188" stroke="#ffb020" stroke-opacity=".3"/><line x1="760" y1="230" x2="676" y2="398" stroke="#ffb020" stroke-opacity=".3"/><line x1="760" y1="230" x2="838" y2="278" stroke="#ffb020" stroke-opacity=".3"/><line x1="760" y1="230" x2="859" y2="97" stroke="#ffb020" stroke-opacity=".3"/><line x1="760" y1="230" x2="708" y2="184" stroke="#ffb020" stroke-opacity=".3"/><line x1="760" y1="230" x2="655" y2="329" stroke="#ffb020" stroke-opacity=".3"/><line x1="760" y1="230" x2="790" y2="268" stroke="#ffb020" stroke-opacity=".3"/><line x1="760" y1="230" x2="862" y2="163" stroke="#ffb020" stroke-opacity=".3"/><line x1="760" y1="230" x2="667" y2="58" stroke="#ffb020" stroke-opacity=".3"/><line x1="760" y1="230" x2="668" y2="270" stroke="#ffb020" stroke-opacity=".3"/><circle cx="771" cy="192" r="3" fill="#ff5b1f" opacity=".9"/><circle cx="794" cy="299" r="4" fill="#ffb020" opacity=".9"/><circle cx="654" cy="188" r="5" fill="#ffb020" opacity=".9"/><circle cx="901" cy="176" r="6" fill="#ff5b1f" opacity=".9"/><circle cx="676" cy="398" r="3" fill="#ffb020" opacity=".9"/><circle cx="745" cy="177" r="4" fill="#ffb020" opacity=".9"/><circle cx="838" cy="278" r="5" fill="#ff5b1f" opacity=".9"/><circle cx="633" cy="255" r="6" fill="#ffb020" opacity=".9"/><circle cx="859" cy="97" r="3" fill="#ffb020" opacity=".9"/><circle cx="781" cy="432" r="4" fill="#ff5b1f" opacity=".9"/><circle cx="708" cy="184" r="5" fill="#ffb020" opacity=".9"/><circle cx="867" cy="228" r="6" fill="#ffb020" opacity=".9"/><circle cx="655" cy="329" r="3" fill="#ff5b1f" opacity=".9"/><circle cx="773" cy="49" r="4" fill="#ffb020" opacity=".9"/><circle cx="790" cy="268" r="5" fill="#ffb020" opacity=".9"/><circle cx="676" cy="217" r="6" fill="#ff5b1f" opacity=".9"/><circle cx="862" cy="163" r="3" fill="#ffb020" opacity=".9"/><circle cx="721" cy="384" r="4" fill="#ffb020" opacity=".9"/><circle cx="667" cy="58" r="5" fill="#ff5b1f" opacity=".9"/><circle cx="820" cy="251" r="6" fill="#ffb020" opacity=".9"/><circle cx="668" cy="270" r="3" fill="#ffb020" opacity=".9"/><circle cx="816" cy="105" r="4" fill="#ff5b1f" opacity=".9"/><circle cx="760" cy="230" r="12" fill="#fff"/>
<text x="56" y="92" font-family="JetBrains Mono,monospace" font-size="24" font-weight="700" fill="#ff5b1f" letter-spacing="4">06 · 25 PROMPTS</text>
<text x="56" y="410" font-family="Space Grotesk,Inter,sans-serif" font-size="64" font-weight="700" fill="#fff" letter-spacing="-2"><tspan x="56" dy="0">AI Content</tspan><tspan x="56" dy="70">Repurposing Prompt</tspan></text>
<text x="56" y="540" font-family="Inter,sans-serif" font-size="24" fill="#a3a9b3">Mac Steel · Steel Products</text></svg>