<svg xmlns="http://www.w3.org/2000/svg" viewBox="0 0 960 600" role="img" aria-label="AI-Powered Chatbot Conversations Pack">
<defs><radialGradient id="g" cx="85%" cy="15%" r="80%"><stop offset="0" stop-color="#ff5b1f" stop-opacity=".55"/><stop offset="1" stop-color="#ff5b1f" stop-opacity="0"/></radialGradient>
<pattern id="p" width="40" height="40" patternUnits="userSpaceOnUse"><path d="M40 0H0V40" fill="none" stroke="#fff" stroke-opacity=".05"/></pattern></defs>
<rect width="960" height="600" fill="#101216"/><rect width="960" height="600" fill="url(#g)"/><rect width="960" height="600" fill="url(#p)"/>
<line x1="760" y1="230" x2="790" y2="256" stroke="#ff5b1f" stroke-opacity=".3"/><line x1="760" y1="230" x2="842" y2="151" stroke="#ff5b1f" stroke-opacity=".3"/><line x1="760" y1="230" x2="642" y2="84" stroke="#ff5b1f" stroke-opacity=".3"/><line x1="760" y1="230" x2="684" y2="281" stroke="#ff5b1f" stroke-opacity=".3"/><line x1="760" y1="230" x2="840" y2="375" stroke="#ff5b1f" stroke-opacity=".3"/><line x1="760" y1="230" x2="824" y2="202" stroke="#ff5b1f" stroke-opacity=".3"/><line x1="760" y1="230" x2="714" y2="94" stroke="#ff5b1f" stroke-opacity=".3"/><line x1="760" y1="230" x2="713" y2="241" stroke="#ff5b1f" stroke-opacity=".3"/><line x1="760" y1="230" x2="779" y2="351" stroke="#ff5b1f" stroke-opacity=".3"/><line x1="760" y1="230" x2="956" y2="217" stroke="#ff5b1f" stroke-opacity=".3"/><line x1="760" y1="230" x2="762" y2="130" stroke="#ff5b1f" stroke-opacity=".3"/><circle cx="790" cy="256" r="3" fill="#62e6ff" opacity=".9"/><circle cx="683" cy="232" r="4" fill="#ff5b1f" opacity=".9"/><circle cx="842" cy="151" r="5" fill="#ff5b1f" opacity=".9"/><circle cx="751" cy="381" r="6" fill="#62e6ff" opacity=".9"/><circle cx="642" cy="84" r="3" fill="#ff5b1f" opacity=".9"/><circle cx="814" cy="238" r="4" fill="#ff5b1f" opacity=".9"/><circle cx="684" cy="281" r="5" fill="#62e6ff" opacity=".9"/><circle cx="790" cy="105" r="6" fill="#ff5b1f" opacity=".9"/><circle cx="840" cy="375" r="3" fill="#ff5b1f" opacity=".9"/><circle cx="568" cy="165" r="4" fill="#62e6ff" opacity=".9"/><circle cx="824" cy="202" r="5" fill="#ff5b1f" opacity=".9"/><circle cx="717" cy="328" r="6" fill="#ff5b1f" opacity=".9"/><circle cx="714" cy="94" r="3" fill="#62e6ff" opacity=".9"/><circle cx="919" cy="317" r="4" fill="#ff5b1f" opacity=".9"/><circle cx="713" cy="241" r="5" fill="#ff5b1f" opacity=".9"/><circle cx="807" cy="159" r="6" fill="#62e6ff" opacity=".9"/><circle cx="779" cy="351" r="3" fill="#ff5b1f" opacity=".9"/><circle cx="636" cy="131" r="4" fill="#ff5b1f" opacity=".9"/><circle cx="956" cy="217" r="5" fill="#62e6ff" opacity=".9"/><circle cx="716" cy="276" r="6" fill="#ff5b1f" opacity=".9"/><circle cx="762" cy="130" r="3" fill="#ff5b1f" opacity=".9"/><circle cx="850" cy="333" r="4" fill="#62e6ff" opacity=".9"/><circle cx="760" cy="230" r="12" fill="#fff"/>
<text x="56" y="92" font-family="JetBrains Mono,monospace" font-size="24" font-weight="700" fill="#62e6ff" letter-spacing="4">08 · 25 PROMPTS</text>
<text x="56" y="410" font-family="Space Grotesk,Inter,sans-serif" font-size="64" font-weight="700" fill="#fff" letter-spacing="-2"><tspan x="56" dy="0">AI-Powered Chatbot</tspan><tspan x="56" dy="70">Conversations Pack</tspan></text>
<text x="56" y="540" font-family="Inter,sans-serif" font-size="24" fill="#a3a9b3">Mac Steel · Steel Products</text></svg>