<svg xmlns="http://www.w3.org/2000/svg" viewBox="0 0 960 300" role="img" aria-label="Last 60 closed paper trades: 15 wins, 45 losses"><rect width="960" height="300" fill="#12151a"/><line x1="24" y1="150.0" x2="936" y2="150.0" stroke="#fff" stroke-opacity=".15"/><rect x="25.0" y="150.0" width="13.2" height="55.8" rx="2" fill="#ff6272"><title>PSQ -5.03%</title></rect><rect x="40.2" y="150.0" width="13.2" height="67.1" rx="2" fill="#ff6272"><title>UNG -6.04%</title></rect><rect x="55.4" y="150.0" width="13.2" height="59.7" rx="2" fill="#ff6272"><title>TSLA -5.38%</title></rect><rect x="70.6" y="150.0" width="13.2" height="108.1" rx="2" fill="#ff6272"><title>RCL -9.74%</title></rect><rect x="85.8" y="150.0" width="13.2" height="74.6" rx="2" fill="#ff6272"><title>CASH -6.72%</title></rect><rect x="101.0" y="24.0" width="13.2" height="126.0" rx="2" fill="#3ddc97"><title>GME +15.42%</title></rect><rect x="116.2" y="150.0" width="13.2" height="60.7" rx="2" fill="#ff6272"><title>LWLG -5.47%</title></rect><rect x="131.4" y="28.6" width="13.2" height="121.4" rx="2" fill="#3ddc97"><title>ASPN +10.94%</title></rect><rect x="146.6" y="150.0" width="13.2" height="56.4" rx="2" fill="#ff6272"><title>USAS -5.08%</title></rect><rect x="161.8" y="150.0" width="13.2" height="77.9" rx="2" fill="#ff6272"><title>SNAP -7.02%</title></rect><rect x="177.0" y="24.0" width="13.2" height="126.0" rx="2" fill="#3ddc97"><title>UNG +14.02%</title></rect><rect x="192.2" y="150.0" width="13.2" height="55.6" rx="2" fill="#ff6272"><title>AQN -5.01%</title></rect><rect x="207.4" y="24.0" width="13.2" height="126.0" rx="2" fill="#3ddc97"><title>OKTA +12.18%</title></rect><rect x="222.6" y="150.0" width="13.2" height="74.4" rx="2" fill="#ff6272"><title>ANGI -6.70%</title></rect><rect x="237.8" y="150.0" width="13.2" height="58.7" rx="2" fill="#ff6272"><title>EWZ -5.29%</title></rect><rect x="253.0" y="150.0" width="13.2" height="61.2" rx="2" fill="#ff6272"><title>DKNG -5.51%</title></rect><rect x="268.2" y="150.0" width="13.2" height="56.6" rx="2" fill="#ff6272"><title>ICL -5.10%</title></rect><rect x="283.4" y="150.0" width="13.2" height="68.9" rx="2" fill="#ff6272"><title>SLV -6.21%</title></rect><rect x="298.6" y="150.0" width="13.2" height="68.9" rx="2" fill="#ff6272"><title>SLV -6.21%</title></rect><rect x="313.8" y="150.0" width="13.2" height="63.1" rx="2" fill="#ff6272"><title>GLD -5.68%</title></rect><rect x="329.0" y="150.0" width="13.2" height="63.1" rx="2" fill="#ff6272"><title>GLD -5.68%</title></rect><rect x="344.2" y="150.0" width="13.2" height="61.9" rx="2" fill="#ff6272"><title>SLV -5.58%</title></rect><rect x="359.4" y="150.0" width="13.2" height="57.2" rx="2" fill="#ff6272"><title>TLT -5.15%</title></rect><rect x="374.6" y="150.0" width="13.2" height="57.2" rx="2" fill="#ff6272"><title>TLT -5.15%</title></rect><rect x="389.8" y="150.0" width="13.2" height="57.2" rx="2" fill="#ff6272"><title>TLT -5.15%</title></rect><rect x="405.0" y="150.0" width="13.2" height="61.1" rx="2" fill="#ff6272"><title>SLV -5.50%</title></rect><rect x="420.2" y="24.0" width="13.2" height="126.0" rx="2" fill="#3ddc97"><title>XME +11.35%</title></rect><rect x="435.4" y="150.0" width="13.2" height="81.5" rx="2" fill="#ff6272"><title>ZETA -7.34%</title></rect><rect x="450.6" y="150.0" width="13.2" height="55.8" rx="2" fill="#ff6272"><title>HDSN -5.03%</title></rect><rect x="465.8" y="150.0" width="13.2" height="65.2" rx="2" fill="#ff6272"><title>CW -5.87%</title></rect><rect x="481.0" y="30.1" width="13.2" height="119.9" rx="2" fill="#3ddc97"><title>BURL +10.80%</title></rect><rect x="496.2" y="150.0" width="13.2" height="61.4" rx="2" fill="#ff6272"><title>DUOL -5.53%</title></rect><rect x="511.4" y="150.0" width="13.2" height="72.3" rx="2" fill="#ff6272"><title>IOT -6.51%</title></rect><rect x="526.6" y="150.0" width="13.2" height="72.6" rx="2" fill="#ff6272"><title>ACRS -6.54%</title></rect><rect x="541.8" y="38.2" width="13.2" height="111.8" rx="2" fill="#3ddc97"><title>TBT +10.07%</title></rect><rect x="557.0" y="35.4" width="13.2" height="114.6" rx="2" fill="#3ddc97"><title>GLD +10.32%</title></rect><rect x="572.2" y="35.7" width="13.2" height="114.3" rx="2" fill="#3ddc97"><title>IAU +10.30%</title></rect><rect x="587.4" y="150.0" width="13.2" height="59.2" rx="2" fill="#ff6272"><title>LTH -5.33%</title></rect><rect x="602.6" y="150.0" width="13.2" height="59.5" rx="2" fill="#ff6272"><title>VEL -5.36%</title></rect><rect x="617.8" y="150.0" width="13.2" height="56.9" rx="2" fill="#ff6272"><title>PPLT -5.13%</title></rect><rect x="633.0" y="150.0" width="13.2" height="55.8" rx="2" fill="#ff6272"><title>GLD -5.03%</title></rect><rect x="648.2" y="150.0" width="13.2" height="55.8" rx="2" fill="#ff6272"><title>GLD -5.03%</title></rect><rect x="663.4" y="150.0" width="13.2" height="57.9" rx="2" fill="#ff6272"><title>USO -5.22%</title></rect><rect x="678.6" y="150.0" width="13.2" height="57.9" rx="2" fill="#ff6272"><title>USO -5.22%</title></rect><rect x="693.8" y="150.0" width="13.2" height="61.7" rx="2" fill="#ff6272"><title>MSCI -5.56%</title></rect><rect x="709.0" y="150.0" width="13.2" height="57.4" rx="2" fill="#ff6272"><title>ASML -5.17%</title></rect><rect x="724.2" y="24.0" width="13.2" height="126.0" rx="2" fill="#3ddc97"><title>CCL +11.48%</title></rect><rect x="739.4" y="150.0" width="13.2" height="56.3" rx="2" fill="#ff6272"><title>DBC -5.07%</title></rect><rect x="754.6" y="150.0" width="13.2" height="57.2" rx="2" fill="#ff6272"><title>XME -5.15%</title></rect><rect x="769.8" y="30.4" width="13.2" height="119.6" rx="2" fill="#3ddc97"><title>OLLI +10.77%</title></rect><rect x="785.0" y="150.0" width="13.2" height="57.7" rx="2" fill="#ff6272"><title>ADUS -5.20%</title></rect><rect x="800.2" y="150.0" width="13.2" height="55.5" rx="2" fill="#ff6272"><title>ABEO -5.00%</title></rect><rect x="815.4" y="38.3" width="13.2" height="111.7" rx="2" fill="#3ddc97"><title>ANGI +10.06%</title></rect><rect x="830.6" y="150.0" width="13.2" height="56.6" rx="2" fill="#ff6272"><title>MLM -5.10%</title></rect><rect x="845.8" y="150.0" width="13.2" height="67.5" rx="2" fill="#ff6272"><title>DKNG -6.08%</title></rect><rect x="861.0" y="34.1" width="13.2" height="115.9" rx="2" fill="#3ddc97"><title>AMAT +10.44%</title></rect><rect x="876.2" y="24.0" width="13.2" height="126.0" rx="2" fill="#3ddc97"><title>RCL +11.52%</title></rect><rect x="891.4" y="35.1" width="13.2" height="114.9" rx="2" fill="#3ddc97"><title>TBT +10.35%</title></rect><rect x="906.6" y="150.0" width="13.2" height="57.5" rx="2" fill="#ff6272"><title>WEAT -5.18%</title></rect><rect x="921.8" y="150.0" width="13.2" height="55.5" rx="2" fill="#ff6272"><title>TBBK -5.00%</title></rect><text x="24" y="20" font-family="JetBrains Mono,monospace" font-size="13" fill="#6f7682">LAST 60 CLOSED · PAPER</text></svg>