<svg xmlns="http://www.w3.org/2000/svg" viewBox="0 0 1200 750" width="1200" height="750" role="img" aria-label="SteelWorks NIST AI RMF scorecard: Developing"><rect width="1200" height="750" fill="#151a21"/><line x1="60" y1="0" x2="60" y2="750" stroke="#252d36" stroke-width="1"/><line x1="120" y1="0" x2="120" y2="750" stroke="#252d36" stroke-width="1"/><line x1="180" y1="0" x2="180" y2="750" stroke="#252d36" stroke-width="1"/><line x1="240" y1="0" x2="240" y2="750" stroke="#252d36" stroke-width="1"/><line x1="300" y1="0" x2="300" y2="750" stroke="#252d36" stroke-width="1"/><line x1="360" y1="0" x2="360" y2="750" stroke="#252d36" stroke-width="1"/><line x1="420" y1="0" x2="420" y2="750" stroke="#252d36" stroke-width="1"/><line x1="480" y1="0" x2="480" y2="750" stroke="#252d36" stroke-width="1"/><line x1="540" y1="0" x2="540" y2="750" stroke="#252d36" stroke-width="1"/><line x1="600" y1="0" x2="600" y2="750" stroke="#252d36" stroke-width="1"/><line x1="660" y1="0" x2="660" y2="750" stroke="#252d36" stroke-width="1"/><line x1="720" y1="0" x2="720" y2="750" stroke="#252d36" stroke-width="1"/><line x1="780" y1="0" x2="780" y2="750" stroke="#252d36" stroke-width="1"/><line x1="840" y1="0" x2="840" y2="750" stroke="#252d36" stroke-width="1"/><line x1="900" y1="0" x2="900" y2="750" stroke="#252d36" stroke-width="1"/><line x1="960" y1="0" x2="960" y2="750" stroke="#252d36" stroke-width="1"/><line x1="1020" y1="0" x2="1020" y2="750" stroke="#252d36" stroke-width="1"/><line x1="1080" y1="0" x2="1080" y2="750" stroke="#252d36" stroke-width="1"/><line x1="1140" y1="0" x2="1140" y2="750" stroke="#252d36" stroke-width="1"/><line x1="0" y1="60" x2="1200" y2="60" stroke="#252d36" stroke-width="1"/><line x1="0" y1="120" x2="1200" y2="120" stroke="#252d36" stroke-width="1"/><line x1="0" y1="180" x2="1200" y2="180" stroke="#252d36" stroke-width="1"/><line x1="0" y1="240" x2="1200" y2="240" stroke="#252d36" stroke-width="1"/><line x1="0" y1="300" x2="1200" y2="300" stroke="#252d36" stroke-width="1"/><line x1="0" y1="360" x2="1200" y2="360" stroke="#252d36" stroke-width="1"/><line x1="0" y1="420" x2="1200" y2="420" stroke="#252d36" stroke-width="1"/><line x1="0" y1="480" x2="1200" y2="480" stroke="#252d36" stroke-width="1"/><line x1="0" y1="540" x2="1200" y2="540" stroke="#252d36" stroke-width="1"/><line x1="0" y1="600" x2="1200" y2="600" stroke="#252d36" stroke-width="1"/><line x1="0" y1="660" x2="1200" y2="660" stroke="#252d36" stroke-width="1"/><line x1="0" y1="720" x2="1200" y2="720" stroke="#252d36" stroke-width="1"/><text x="48" y="64" font-family="JetBrains Mono, ui-monospace, Menlo, Consolas, monospace" font-size="18" fill="#e3a83b" text-anchor="start" font-weight="normal" letter-spacing="3">AI SECURITY &amp; RISK AUDIT · OUR OWN OPERATION, MEASURED</text><text x="48" y="104" font-family="JetBrains Mono, ui-monospace, Menlo, Consolas, monospace" font-size="28" fill="#eceff2" text-anchor="start" font-weight="bold" >NIST AI RMF 1.0 · overall 50.2% · Developing</text><rect x="48" y="170" width="268" height="360" fill="#252d36" stroke="#4a5361"/><text x="68" y="214" font-family="JetBrains Mono, ui-monospace, Menlo, Consolas, monospace" font-size="22" fill="#e3a83b" text-anchor="start" font-weight="bold" >GOVERN</text><text x="68" y="242" font-family="JetBrains Mono, ui-monospace, Menlo, Consolas, monospace" font-size="14" fill="#a9b1ba" text-anchor="start" font-weight="normal" >weight 20% · 6 controls</text><rect x="68" y="266" width="228" height="200" fill="#151a21" stroke="#4a5361"/><rect x="68" y="386" width="228" height="80" fill="#5fb4cf"/><text x="68" y="510" font-family="JetBrains Mono, ui-monospace, Menlo, Consolas, monospace" font-size="40" fill="#eceff2" text-anchor="start" font-weight="bold" >40%</text><rect x="328" y="170" width="268" height="360" fill="#252d36" stroke="#4a5361"/><text x="348" y="214" font-family="JetBrains Mono, ui-monospace, Menlo, Consolas, monospace" font-size="22" fill="#e3a83b" text-anchor="start" font-weight="bold" >MAP</text><text x="348" y="242" font-family="JetBrains Mono, ui-monospace, Menlo, Consolas, monospace" font-size="14" fill="#a9b1ba" text-anchor="start" font-weight="normal" >weight 20% · 6 controls</text><rect x="348" y="266" width="228" height="200" fill="#151a21" stroke="#4a5361"/><rect x="348" y="393" width="228" height="73" fill="#5fb4cf"/><text x="348" y="510" font-family="JetBrains Mono, ui-monospace, Menlo, Consolas, monospace" font-size="40" fill="#eceff2" text-anchor="start" font-weight="bold" >37%</text><rect x="608" y="170" width="268" height="360" fill="#252d36" stroke="#4a5361"/><text x="628" y="214" font-family="JetBrains Mono, ui-monospace, Menlo, Consolas, monospace" font-size="22" fill="#e3a83b" text-anchor="start" font-weight="bold" >MEASURE</text><text x="628" y="242" font-family="JetBrains Mono, ui-monospace, Menlo, Consolas, monospace" font-size="14" fill="#a9b1ba" text-anchor="start" font-weight="normal" >weight 35% · 7 controls</text><rect x="628" y="266" width="228" height="200" fill="#151a21" stroke="#4a5361"/><rect x="628" y="358" width="228" height="108" fill="#5fb4cf"/><text x="628" y="510" font-family="JetBrains Mono, ui-monospace, Menlo, Consolas, monospace" font-size="40" fill="#eceff2" text-anchor="start" font-weight="bold" >54%</text><rect x="888" y="170" width="268" height="360" fill="#252d36" stroke="#4a5361"/><text x="908" y="214" font-family="JetBrains Mono, ui-monospace, Menlo, Consolas, monospace" font-size="22" fill="#e3a83b" text-anchor="start" font-weight="bold" >MANAGE</text><text x="908" y="242" font-family="JetBrains Mono, ui-monospace, Menlo, Consolas, monospace" font-size="14" fill="#a9b1ba" text-anchor="start" font-weight="normal" >weight 25% · 6 controls</text><rect x="908" y="266" width="228" height="200" fill="#151a21" stroke="#4a5361"/><rect x="908" y="340" width="228" height="126" fill="#5fb4cf"/><text x="908" y="510" font-family="JetBrains Mono, ui-monospace, Menlo, Consolas, monospace" font-size="40" fill="#eceff2" text-anchor="start" font-weight="bold" >63%</text><text x="48" y="585" font-family="IBM Plex Sans, system-ui, -apple-system, Segoe UI, sans-serif" font-size="16" fill="#a9b1ba" text-anchor="start" font-weight="normal" >Score 0-5 per control, weighted by function. Every finding is owned, dated and re-measured weekly.</text><text x="48" y="716" font-family="JetBrains Mono, ui-monospace, Menlo, Consolas, monospace" font-size="16" fill="#a9b1ba" text-anchor="start" font-weight="normal" >drawn from data/security/ai-rmf-scorecard.json · measured 2026-09-11</text><rect x="0.5" y="0.5" width="1199" height="749" fill="none" stroke="#5fb4cf" stroke-width="1"/></svg>
